<svg width="50" height="50" viewBox="0 0 50 50" fill="none" xmlns="http://www.w3.org/2000/svg">
<circle cx="25" cy="25" r="25" fill="#D9D9D9"/>
<path d="M24.5414 10.186C24.3493 10.2137 24.1595 10.2528 23.9732 10.3031C22.9873 10.5013 22.1087 10.9986 21.4871 11.7102C20.8656 12.4218 20.5394 13.3037 20.564 14.2059V22.0116C20.564 23.0467 21.0245 24.0394 21.8442 24.7713C22.6639 25.5033 23.7756 25.9145 24.9348 25.9145C26.094 25.9145 27.2057 25.5033 28.0254 24.7713C28.8451 24.0394 29.3056 23.0467 29.3056 22.0116V14.2059C29.3267 13.6527 29.2158 13.1018 28.9802 12.5897C28.7447 12.0777 28.3898 11.6163 27.9393 11.2361C27.4887 10.8559 26.9527 10.5656 26.3669 10.3846C25.7811 10.2035 25.1588 10.1358 24.5414 10.186ZM13.3523 18.1088C12.9 18.2445 12.5099 18.5088 12.2415 18.8612C11.9732 19.2135 11.8414 19.6346 11.8663 20.0602V22.0116C11.8663 27.7878 16.6304 32.5103 22.7931 33.486V37.623H20.6078C18.2038 37.623 16.237 39.3793 16.237 41.5259H33.7637C33.7637 39.3793 31.7969 37.623 29.393 37.623H27.2076V33.486C33.3703 32.5493 38.1345 27.7878 38.1345 22.0116V20.0602C38.1345 19.5426 37.9042 19.0463 37.4944 18.6803C37.0845 18.3143 36.5287 18.1088 35.9491 18.1088C35.3695 18.1088 34.8136 18.3143 34.4038 18.6803C33.994 19.0463 33.7637 19.5426 33.7637 20.0602V22.0116C33.7637 26.3438 29.8737 29.8173 25.0222 29.8173C20.1707 29.8173 16.2807 26.3438 16.2807 22.0116V20.0602C16.286 19.7715 16.2195 19.4853 16.0859 19.2224C15.9524 18.9594 15.7552 18.7262 15.5085 18.5395C15.2618 18.3529 14.9718 18.2174 14.6594 18.1429C14.347 18.0684 14.02 18.0567 13.702 18.1088C13.6146 18.1041 13.5271 18.1041 13.4397 18.1088H13.3523Z" fill="#3D3D3D"/>
</svg>
